<?xml version="1.0" encoding="UTF-8" standalone="no"?><!DOCTYPE svg PUBLIC "-//W3C//DTD SVG 1.1//EN" "http://www.w3.org/Graphics/SVG/1.1/DTD/svg11.dtd"><svg width="100%" height="100%" viewBox="0 0 60 60" version="1.1" xmlns="http://www.w3.org/2000/svg" xmlns:xlink="http://www.w3.org/1999/xlink" xml:space="preserve" style="fill-rule:evenodd;clip-rule:evenodd;stroke-linejoin:round;stroke-miterlimit:1.41421;"><g id="Algorthium"><path d="M51.647,53.083c-3.481,0 -6.186,-2.542 -6.186,-5.665c0,-2.847 2.539,-5.205 5.539,-5.599l0,-2.819l-13,0l0,2.819c3,0.394 5.471,2.752 5.471,5.599c0,3.123 -2.804,5.665 -6.285,5.665c-3.48,0 -6.455,-2.542 -6.455,-5.665c0,-2.847 2.269,-5.205 5.269,-5.599l0,-2.819l-12,0l0,2.819c3,0.394 5.255,2.752 5.255,5.599c0,3.123 -2.911,5.665 -6.392,5.665c-3.481,0 -6.294,-2.542 -6.294,-5.665c0,-2.847 2.431,-5.205 5.431,-5.599l0,-2.819l-13,0l0,2.819c3,0.394 5.539,2.752 5.539,5.599c0,3.123 -2.769,5.665 -6.249,5.665c-3.481,0 -6.508,-2.542 -6.508,-5.665c0,-2.847 2.218,-5.205 5.218,-5.599l0,-3.302c0,-0.448 0.855,-0.517 1.353,-0.517l20.647,0l0,-4l-8.921,0c-0.313,0 -0.603,0.09 -0.768,-0.148c-0.165,-0.239 -0.179,-0.419 -0.04,-0.67l3.608,-6.604c0.154,-0.275 0.466,-0.578 0.807,-0.578l5.314,0l0,-4l-8.019,0c-0.499,0 -0.981,-0.029 -0.981,-0.477l0,-7.757l-2.029,1.855l-1.256,-0.955l2.088,-1.666l-8.803,0l0,-2l8.803,0l-2.068,-1.854l1.236,-1.144l2.029,1.857l0,-4.52c0,-0.448 0.482,-0.339 0.981,-0.339l18.039,0c0.498,0 0.98,-0.109 0.98,0.339l0,5.661l3,0l0,-2.425c0,-0.447 0.031,-0.575 0.529,-0.575l10.824,0c0.499,0 0.647,0.128 0.647,0.575l0,6.474c0,0.448 -0.148,0.951 -0.647,0.951l-10.824,0c-0.498,0 -0.529,-0.503 -0.529,-0.951l0,-2.049l-3,0l0,8.523c0,0.448 -0.482,0.477 -0.98,0.477l-8.02,0l0,4l8.922,0c0.313,0 0.602,0.334 0.767,0.573c0.165,0.238 0.18,0.631 0.04,0.882l-3.608,6.285c-0.153,0.275 -0.465,0.26 -0.807,0.26l-5.314,0l0,4l20.647,0c0.499,0 1.353,0.069 1.353,0.517l0,3.302c3,0.394 5.186,2.752 5.186,5.599c0,3.123 -3.058,5.665 -6.539,5.665m-48.705,-42.08l1.804,0l0,1.618l-1.804,0l0,-1.618Zm3.607,0l1.804,0l0,1.618l-1.804,0l0,-1.618Zm-6.549,48.997l60,0l0,-60l-60,0l0,60Z" style="fill:#474e5d;fill-rule:nonzero;"/><path d="M3.843,47.419c0,2.231 2.023,4.046 4.51,4.046c2.486,0 4.51,-1.815 4.51,-4.046c0,-2.231 -2.024,-4.046 -4.51,-4.046c-2.487,0 -4.51,1.815 -4.51,4.046" style="fill:#474e5d;fill-rule:nonzero;"/><path d="M18.275,47.419c0,2.231 2.023,4.046 4.51,4.046c2.486,0 4.51,-1.815 4.51,-4.046c0,-2.231 -2.024,-4.046 -4.51,-4.046c-2.487,0 -4.51,1.815 -4.51,4.046" style="fill:#474e5d;fill-rule:nonzero;"/><rect x="44" y="9" width="10" height="6" style="fill:#474e5d;fill-rule:nonzero;"/><rect x="22" y="6" width="16" height="15" style="fill:#474e5d;fill-rule:nonzero;"/><path d="M51.647,43.373c-2.487,0 -4.51,1.815 -4.51,4.046c0,2.231 2.023,4.046 4.51,4.046c2.487,0 4.51,-1.815 4.51,-4.046c0,-2.231 -2.023,-4.046 -4.51,-4.046" style="fill:#474e5d;fill-rule:nonzero;"/><path d="M39.449,27l-15.877,0l-3.022,6l15.878,0l3.021,-6Z" style="fill:#474e5d;fill-rule:nonzero;"/><path d="M32.706,47.419c0,2.231 2.023,4.046 4.51,4.046c2.486,0 4.51,-1.815 4.51,-4.046c0,-2.231 -2.024,-4.046 -4.51,-4.046c-2.487,0 -4.51,1.815 -4.51,4.046" style="fill:#474e5d;fill-rule:nonzero;"/></g></svg>