<?xml version="1.0" encoding="UTF-8" standalone="no"?><!DOCTYPE svg PUBLIC "-//W3C//DTD SVG 1.1//EN" "http://www.w3.org/Graphics/SVG/1.1/DTD/svg11.dtd"><svg width="100%" height="100%" viewBox="0 0 60 60" version="1.1" xmlns="http://www.w3.org/2000/svg" xmlns:xlink="http://www.w3.org/1999/xlink" xml:space="preserve" style="fill-rule:evenodd;clip-rule:evenodd;stroke-linejoin:round;stroke-miterlimit:1.41421;"><g id="Coding"><path d="M54.24,31.178l-12.527,12.527c-0.195,0.195 -0.46,0.305 -0.734,0.305c-0.276,0 -0.54,-0.11 -0.735,-0.305l-2.716,-2.716c-0.405,-0.405 -0.405,-1.063 0,-1.469l9.078,-9.078l-9.078,-9.077c-0.406,-0.406 -0.406,-1.063 0,-1.469l2.716,-2.716c0.389,-0.389 1.079,-0.389 1.468,0l12.528,12.528c0.406,0.406 0.406,1.064 0,1.47m-27.253,17.194c-0.134,0.452 -0.548,0.745 -0.996,0.745c-0.097,0 -0.196,-0.014 -0.295,-0.043l-2.201,-0.65c-0.264,-0.078 -0.487,-0.257 -0.619,-0.5c-0.131,-0.241 -0.161,-0.526 -0.083,-0.79l10.221,-34.616c0.162,-0.55 0.741,-0.865 1.291,-0.702l2.201,0.65c0.264,0.078 0.487,0.258 0.619,0.5c0.132,0.241 0.161,0.525 0.083,0.79l-10.221,34.616Zm-7.229,-4.667c-0.195,0.195 -0.459,0.305 -0.735,0.305c-0.275,0 -0.539,-0.11 -0.734,-0.305l-12.528,-12.527c-0.406,-0.407 -0.406,-1.064 0,-1.47l12.528,-12.527c0.195,-0.195 0.46,-0.304 0.735,-0.304c0.275,0 0.54,0.109 0.734,0.304l2.716,2.716c0.196,0.195 0.305,0.459 0.305,0.735c0,0.276 -0.11,0.539 -0.305,0.734l-9.078,9.077l9.077,9.077c0.407,0.406 0.407,1.064 0.001,1.469l-2.716,2.716Zm-19.758,16.295l60,0l0,-60l-60,0l0,60Z" style="fill:#474e5d;fill-rule:nonzero;"/></g></svg>