<?xml version="1.0" encoding="UTF-8" standalone="no"?><!DOCTYPE svg PUBLIC "-//W3C//DTD SVG 1.1//EN" "http://www.w3.org/Graphics/SVG/1.1/DTD/svg11.dtd"><svg width="100%" height="100%" viewBox="0 0 60 60" version="1.1" xmlns="http://www.w3.org/2000/svg" xmlns:xlink="http://www.w3.org/1999/xlink" xml:space="preserve" style="fill-rule:evenodd;clip-rule:evenodd;stroke-linejoin:round;stroke-miterlimit:1.41421;"><g id="date-icon"><path d="M53,50.796c0,2.69 -1.796,5.204 -4.114,5.204l-37.772,0c-2.318,0 -4.114,-2.514 -4.114,-5.204l0,-36.526c0,-2.69 1.796,-5.27 4.114,-5.27l3.886,0l0,5l-4,0l0,37l38,0l0,-37l-6,0l0,5l-5,0l0,-14l5,0l0,4l5.886,0c2.318,0 4.114,2.58 4.114,5.27l0,36.526Zm-29,-4.796l-9,0l0,-10l9,0l0,10Zm-9,-22l9,0l0,10l-9,0l0,-10Zm19,22l-8,0l0,-10l8,0l0,10Zm-8,-22l8,0l0,10l-8,0l0,-10Zm19,10l-9,0l0,-10l9,0l0,10Zm-28,-29l5,0l0,4l14,0l0,5l-14,0l0,5l-5,0l0,-14Zm-17,55l60,0l0,-60l-60,0l0,60Z" style="fill:#474e5d;fill-rule:nonzero;"/></g></svg>