<?xml version="1.0" encoding="UTF-8" standalone="no"?><!DOCTYPE svg PUBLIC "-//W3C//DTD SVG 1.1//EN" "http://www.w3.org/Graphics/SVG/1.1/DTD/svg11.dtd"><svg width="100%" height="100%" viewBox="0 0 60 60" version="1.1" xmlns="http://www.w3.org/2000/svg" xmlns:xlink="http://www.w3.org/1999/xlink" xml:space="preserve" style="fill-rule:evenodd;clip-rule:evenodd;stroke-linejoin:round;stroke-miterlimit:1.41421;"><g id="Layer-1"><path d="M12,31.528l0,3.566c0,1.481 6.419,5.094 18,5.094c11.581,0 18,-3.613 18,-5.094l0,-3.566c-5,2.349 -11.312,3.566 -18,3.566c-6.688,0 -13,-1.217 -18,-3.566" style="fill:#474e5d;fill-rule:nonzero;"/><path d="M12,41.717l0,3.566c0,1.481 6.419,5.094 18,5.094c11.581,0 18,-3.613 18,-5.094l0,-3.566c-5,2.349 -11.312,3.566 -18,3.566c-6.688,0 -13,-1.217 -18,-3.566" style="fill:#474e5d;fill-rule:nonzero;"/><path d="M30,19.812c11.581,0 17.829,-3.613 17.829,-5.094c0,-1.479 -6.248,-5.094 -17.829,-5.094c-11.581,0 -17.829,3.615 -17.829,5.094c0,1.481 6.248,5.094 17.829,5.094" style="fill:#474e5d;fill-rule:nonzero;"/><path d="M53,45.282c0,6.689 -11.608,10.188 -23,10.188c-11.392,0 -23,-3.499 -23,-10.188l0,-30.564c0,-6.689 11.608,-10.189 23,-10.189c11.392,0 23,3.5 23,10.189l0,30.564Zm-53,14.718l60,0l0,-60l-60,0l0,60Z" style="fill:#474e5d;fill-rule:nonzero;"/><path d="M12,21.34l0,3.566c0,1.481 6.419,5.094 18,5.094c11.581,0 18,-3.613 18,-5.094l0,-3.566c-5,2.349 -11.312,3.566 -18,3.566c-6.688,0 -13,-1.217 -18,-3.566" style="fill:#474e5d;fill-rule:nonzero;"/></g></svg>