<?xml version="1.0" encoding="UTF-8" standalone="no"?><!DOCTYPE svg PUBLIC "-//W3C//DTD SVG 1.1//EN" "http://www.w3.org/Graphics/SVG/1.1/DTD/svg11.dtd"><svg width="100%" height="100%" viewBox="0 0 60 60" version="1.1" xmlns="http://www.w3.org/2000/svg" xmlns:xlink="http://www.w3.org/1999/xlink" xml:space="preserve" style="fill-rule:evenodd;clip-rule:evenodd;stroke-linejoin:round;stroke-miterlimit:1.41421;"><g id="Gear"><path d="M30.046,38.697c-4.702,0 -8.525,-3.837 -8.525,-8.555c0,-4.717 3.823,-8.554 8.525,-8.554c4.7,0 8.525,3.837 8.525,8.554c0,4.718 -3.825,8.555 -8.525,8.555m15.035,-14.78c-1.026,-2.515 -0.455,-5.421 1.413,-7.373c-0.841,-1.026 -1.774,-1.968 -2.778,-2.808c-1.26,1.204 -3.054,1.912 -4.889,1.912c-0.9,0 -1.757,-0.167 -2.546,-0.497c-2.543,-1.069 -4.192,-3.56 -4.216,-6.293c-1.313,-0.125 -2.637,-0.128 -3.949,-0.009c-0.081,2.703 -1.825,4.704 -4.411,5.763c-0.798,0.326 -1.463,0.892 -2.344,0.892c-1.833,0 -3.627,-0.705 -4.888,-1.905c-1.037,0.848 -1.993,1.792 -2.846,2.814c1.901,1.964 2.472,4.899 1.406,7.441c-1.028,2.449 -3.47,4.067 -6.286,4.198c-0.129,1.323 -0.132,2.671 -0.008,4.014c2.672,0.03 5.156,1.735 6.196,4.262c1.031,2.514 0.46,5.42 -1.41,7.375c0.834,1.019 1.764,1.961 2.775,2.81c1.261,-1.205 3.055,-1.913 4.889,-1.913c0.901,0 1.757,0.168 2.547,0.499c2.541,1.063 4.192,3.554 4.218,6.291c1.303,0.125 2.632,0.129 3.947,0.01c0.077,-2.701 1.746,-5.149 4.259,-6.178c0.778,-0.318 1.619,-0.479 2.499,-0.479c1.83,0 3.623,0.706 4.887,1.905c1.029,-0.84 1.985,-1.786 2.846,-2.814c-1.904,-1.966 -2.476,-4.898 -1.41,-7.439c1.048,-2.501 3.57,-4.189 6.291,-4.216c0.128,-1.323 0.129,-2.665 0.005,-4.002c-2.746,-0.084 -5.162,-1.738 -6.197,-4.26" style="fill:#474e5d;fill-rule:nonzero;"/><path d="M30.045,25.901c-2.36,0 -4.282,1.916 -4.282,4.271c0,2.355 1.922,4.271 4.282,4.271c2.362,0 4.283,-1.916 4.283,-4.271c0,-2.355 -1.921,-4.271 -4.283,-4.271" style="fill:#474e5d;fill-rule:nonzero;"/><path d="M55.494,33.139c-0.185,1.583 -1.517,2.776 -3.097,2.776c-0.061,0 -0.123,-0.002 -0.186,-0.006l-0.228,-0.006c-1.375,0.009 -2.649,0.856 -3.175,2.114c-0.565,1.343 -0.211,2.908 0.877,3.893c1.23,1.115 1.379,3.001 0.338,4.294c-1.219,1.518 -2.614,2.898 -4.145,4.099c-0.561,0.433 -1.246,0.667 -1.939,0.667c-0.876,0 -1.721,-0.371 -2.315,-1.018c-0.626,-0.688 -1.65,-1.112 -2.675,-1.112c-0.428,0 -0.843,0.078 -1.199,0.223c-1.327,0.543 -2.183,1.883 -2.131,3.332c0.056,1.636 -1.171,3.055 -2.793,3.234c-0.93,0.103 -1.877,0.155 -2.813,0.155c-0.99,0 -1.984,-0.057 -2.955,-0.171c-1.648,-0.189 -2.866,-1.639 -2.768,-3.302c0.082,-1.46 -0.765,-2.823 -2.111,-3.386c-0.362,-0.152 -0.784,-0.232 -1.22,-0.232c-1.026,0 -2.049,0.425 -2.669,1.11c-0.597,0.658 -1.444,1.034 -2.329,1.034c-0.712,0 -1.412,-0.246 -1.967,-0.694c-1.506,-1.212 -2.871,-2.593 -4.056,-4.105c-1.009,-1.275 -0.86,-3.144 0.345,-4.251c1.071,-0.983 1.424,-2.535 0.879,-3.862c-0.525,-1.278 -1.769,-2.138 -3.095,-2.138l-0.124,0.001c-1.469,0 -3.174,-1.065 -3.365,-2.785c-0.219,-1.945 -0.215,-3.906 0.011,-5.828c0.197,-1.634 1.541,-2.81 3.2,-2.774c1.584,-0.007 2.95,-0.831 3.485,-2.105c0.563,-1.343 0.211,-2.909 -0.876,-3.893c-1.229,-1.118 -1.376,-3.002 -0.338,-4.293c1.21,-1.511 2.606,-2.891 4.145,-4.099c0.554,-0.432 1.242,-0.669 1.938,-0.669c0.881,0 1.728,0.374 2.321,1.025c0.62,0.682 1.645,1.105 2.674,1.105c0.427,0 0.839,-0.076 1.193,-0.22c1.325,-0.544 2.183,-1.885 2.132,-3.337c-0.055,-1.633 1.172,-3.051 2.794,-3.231c1.905,-0.211 3.854,-0.206 5.766,0.016c1.652,0.192 2.869,1.643 2.771,3.302c-0.084,1.459 0.764,2.823 2.107,3.388c0.359,0.15 0.782,0.23 1.221,0.23c1.029,0 2.05,-0.424 2.666,-1.107c0.594,-0.657 1.444,-1.034 2.332,-1.034c0.711,0 1.408,0.245 1.962,0.689c1.494,1.196 2.86,2.576 4.061,4.102c1.014,1.285 0.861,3.156 -0.346,4.259c-1.066,0.978 -1.419,2.531 -0.876,3.862c0.532,1.295 1.808,2.134 3.251,2.134c1.453,0 3.14,1.065 3.334,2.785c0.219,1.944 0.215,3.905 -0.012,5.829m-55.494,26.861l60,0l0,-60l-60,0l0,60Z" style="fill:#474e5d;fill-rule:nonzero;"/></g></svg>