<?xml version="1.0" encoding="UTF-8" standalone="no"?><!DOCTYPE svg PUBLIC "-//W3C//DTD SVG 1.1//EN" "http://www.w3.org/Graphics/SVG/1.1/DTD/svg11.dtd"><svg width="100%" height="100%" viewBox="0 0 60 60" version="1.1" xmlns="http://www.w3.org/2000/svg" xmlns:xlink="http://www.w3.org/1999/xlink" xml:space="preserve" style="fill-rule:evenodd;clip-rule:evenodd;stroke-linejoin:round;stroke-miterlimit:1.41421;"><g id="chart"><path d="M38.579,20l-16.392,0c-0.533,0 -0.964,-0.433 -0.964,-1c0,-0.566 0.431,-1 0.964,-1l16.392,0c0.533,0 0.964,0.434 0.964,1c0,0.567 -0.431,1 -0.964,1m0,8l-16.392,0c-0.533,0 -0.964,-0.433 -0.964,-1c0,-0.567 0.431,-1 0.964,-1l16.392,0c0.533,0 0.964,0.433 0.964,1c0,0.567 -0.431,1 -0.964,1m0,8l-16.392,0c-0.533,0 -0.964,-0.434 -0.964,-1c0,-0.566 0.431,-1 0.964,-1l16.392,0c0.533,0 0.964,0.434 0.964,1c0,0.566 -0.431,1 -0.964,1m0,8l-16.392,0c-0.533,0 -0.964,-0.434 -0.964,-1c0,-0.566 0.431,-1 0.964,-1l16.392,0c0.533,0 0.964,0.434 0.964,1c0,0.566 -0.431,1 -0.964,1m2.55,-34.018c-0.573,1.09 -1.622,2.018 -2.833,2.018l-15.826,0c-1.212,0 -2.261,-0.928 -2.833,-2.018c-0.251,0.127 -0.528,0.018 -0.824,0.018l-3.813,0l0,41l31,0l0,-41l-4.047,0c-0.296,0 -0.573,0.109 -0.824,-0.018" style="fill:#474e5d;fill-rule:nonzero;"/><path d="M49,53.418c0,1.133 -0.439,1.582 -1.504,1.582l-34.227,0c-1.065,0 -2.269,-0.449 -2.269,-1.582l0,-45.206c0,-1.135 1.204,-2.212 2.269,-2.212l5.544,0c0.296,0 0.573,0.392 0.824,0.518c0.572,-1.091 1.621,-1.518 2.833,-1.518l15.826,0c1.211,0 2.26,0.427 2.833,1.518c0.25,-0.126 0.528,-0.518 0.823,-0.518l5.544,0c1.065,0 1.504,1.077 1.504,2.212l0,45.206Zm-49,6.582l60,0l0,-60l-60,0l0,60Z" style="fill:#474e5d;fill-rule:nonzero;"/><path d="M22.469,10l15.827,0c0.753,0 1.366,-0.601 1.366,-1.499c0,-0.9 -0.613,-1.501 -1.366,-1.501l-15.827,0c-0.754,0 -1.367,0.601 -1.367,1.501c0,0.898 0.613,1.499 1.367,1.499" style="fill:#474e5d;fill-rule:nonzero;"/></g></svg>