<?xml version="1.0" encoding="UTF-8" standalone="no"?><!DOCTYPE svg PUBLIC "-//W3C//DTD SVG 1.1//EN" "http://www.w3.org/Graphics/SVG/1.1/DTD/svg11.dtd"><svg width="100%" height="100%" viewBox="0 0 60 60" version="1.1" xmlns="http://www.w3.org/2000/svg" xmlns:xlink="http://www.w3.org/1999/xlink" xml:space="preserve" style="fill-rule:evenodd;clip-rule:evenodd;stroke-linejoin:round;stroke-miterlimit:1.41421;"><g id="Chat-Icon"><path d="M7,43l11,0l0,5.039l8.108,-5.039l26.892,0l0,-33l-46,0l0,33Z" style="fill:#474e5d;fill-rule:nonzero;"/><path d="M59,42.6c0,2.998 -2.757,5.399 -5.942,5.399l-25.024,0l-15.034,10.917l0,-10.917l-6.142,0c-3.185,0 -5.858,-2.401 -5.858,-5.399l0,-32.632c0,-3 2.673,-4.969 5.858,-4.969l46.2,0c3.185,0 5.942,1.969 5.942,4.969l0,32.632Zm-59,17.399l60,0l0,-60l-60,0l0,60Z" style="fill:#474e5d;fill-rule:nonzero;"/></g></svg>