<?xml version="1.0" encoding="UTF-8" standalone="no"?><!DOCTYPE svg PUBLIC "-//W3C//DTD SVG 1.1//EN" "http://www.w3.org/Graphics/SVG/1.1/DTD/svg11.dtd"><svg width="100%" height="100%" viewBox="0 0 60 60" version="1.1" xmlns="http://www.w3.org/2000/svg" xmlns:xlink="http://www.w3.org/1999/xlink" xml:space="preserve" style="fill-rule:evenodd;clip-rule:evenodd;stroke-linejoin:round;stroke-miterlimit:1.41421;"><g id="Up-Arrow"><path d="M14.325,38l15.675,-14.87l15.675,14.87l-31.35,0Zm15.675,-33c-13.785,0 -25,11.215 -25,25c0,13.785 11.215,25 25,25c13.785,0 25,-11.215 25,-25c0,-13.785 -11.215,-25 -25,-25" style="fill:#474e5d;fill-rule:nonzero;"/><path d="M30,59.515c-16.267,0 -29.5,-13.24 -29.5,-29.515c0,-16.274 13.233,-29.514 29.5,-29.514c16.267,0 29.5,13.24 29.5,29.514c0,16.275 -13.233,29.515 -29.5,29.515m-30,0.485l60,0l0,-60l-60,0l0,60Z" style="fill:#474e5d;fill-rule:nonzero;"/></g></svg>